<svg width="50" height="50" viewBox="0 0 50 50" fill="none" xmlns="http://www.w3.org/2000/svg">
<g clip-path="url(#clip0_122_193)">
<path d="M21.0937 -0.000117474C17.5367 -0.000117474 14.0625 4.94285 14.0625 7.81238C14.0625 10.1657 16.3905 12.2235 17.1875 12.8661V13.0919C16.4555 14.6288 15.5846 16.0957 14.5859 17.4742C14.7536 16.872 14.8403 16.2501 14.8437 15.6249C14.8455 14.3354 14.4927 13.0703 13.8239 11.9678C13.155 10.8654 12.1958 9.96813 11.0513 9.37416C9.90681 8.78018 8.62098 8.51238 7.33449 8.60004C6.048 8.6877 4.81039 9.12744 3.75702 9.87118C2.70365 10.6149 1.87509 11.634 1.36195 12.817C0.848812 14 0.670865 15.3013 0.847571 16.5786C1.02428 17.8559 1.54883 19.06 2.36386 20.0592C3.17889 21.0585 4.25301 21.8143 5.46873 22.2441V24.9999V31.0622C2.15552 35.7775 0.836595 48.5887 0.78123 49.1408C0.770323 49.2498 0.782436 49.3598 0.816783 49.4637C0.851131 49.5677 0.906946 49.6633 0.980609 49.7443C1.05427 49.8253 1.14414 49.8899 1.24438 49.9339C1.34462 49.978 1.453 50.0004 1.56248 49.9999H48.4375C48.547 50.0004 48.6553 49.978 48.7556 49.9339C48.8558 49.8899 48.9457 49.8253 49.0194 49.7443C49.093 49.6633 49.1488 49.5677 49.1832 49.4637C49.2175 49.3598 49.2296 49.2498 49.2187 49.1408C49.0515 47.5088 47.5 33.0948 43.457 29.8659C40.4976 27.4975 35.9349 26.025 33.6319 25.389C33.9104 25.2306 34.1613 25.0281 34.375 24.7893C34.6806 25.1015 35.0451 25.3499 35.4475 25.5201C35.8498 25.6904 36.2819 25.7791 36.7187 25.7811C37.1324 25.7933 37.5443 25.7209 37.9289 25.5681C38.3136 25.4154 38.663 25.1857 38.9556 24.893C39.2483 24.6004 39.478 24.251 39.6307 23.8663C39.7835 23.4817 39.8559 23.0698 39.8437 22.6561C39.8721 21.8804 39.5991 21.1238 39.082 20.5449C38.5648 19.9661 37.8437 19.6098 37.0697 19.551C35.3579 17.6042 33.9251 15.4288 32.8125 13.0873V12.8661C33.6095 12.2235 35.9375 10.1657 35.9375 7.81238C35.9375 4.94285 32.4633 -0.000117474 28.9062 -0.000117474C28.2069 -0.0166883 27.523 0.206895 26.9685 0.633375C26.4141 1.05985 26.0225 1.66347 25.8591 2.34363H24.1409C23.9775 1.66347 23.5859 1.05985 23.0314 0.633375C22.4769 0.206895 21.7931 -0.0166883 21.0937 -0.000117474ZM21.2387 1.55933C21.4355 1.56619 21.6289 1.61248 21.8075 1.69546C21.9862 1.77844 22.1463 1.89641 22.2785 2.04239C22.4107 2.18838 22.5122 2.3594 22.5771 2.54534C22.642 2.73128 22.6689 2.92835 22.6562 3.12488V11.7186H18.2556C17.3923 11.0262 15.625 9.31343 15.625 7.81238C15.625 5.8991 18.4267 1.56238 21.0876 1.56238C21.1379 1.55878 21.1883 1.55776 21.2387 1.55933ZM28.7597 1.56086C28.8086 1.55893 28.8575 1.55944 28.9062 1.56238C31.5726 1.56238 34.375 5.8991 34.375 7.81238C34.375 9.31279 32.6076 11.0256 31.7444 11.7186H27.3437V3.12488C27.3311 2.92855 27.3579 2.73168 27.4228 2.54592C27.4876 2.36017 27.589 2.18931 27.721 2.04346C27.8531 1.89762 28.013 1.77976 28.1915 1.69686C28.3699 1.61396 28.5631 1.56771 28.7597 1.56086ZM24.2187 3.90613H25.7812V11.7186H24.2187V3.90613ZM7.81248 10.1561C9.26238 10.1578 10.6524 10.7345 11.6776 11.7597C12.7029 12.785 13.2796 14.175 13.2812 15.6249C13.2812 16.7065 12.9605 17.7638 12.3596 18.6632C11.7587 19.5625 10.9046 20.2634 9.90528 20.6773C8.906 21.0913 7.80641 21.1996 6.74558 20.9886C5.68475 20.7775 4.71031 20.2567 3.94549 19.4919C3.18067 18.7271 2.65982 17.7526 2.44881 16.6918C2.2378 15.6309 2.3461 14.5314 2.76001 13.5321C3.17393 12.5328 3.87487 11.6787 4.77421 11.0778C5.67354 10.4769 6.73086 10.1561 7.81248 10.1561ZM7.03123 11.7186V14.8436H3.90623V16.4061H7.03123V19.5311H8.59373V16.4061H11.7187V14.8436H8.59373V11.7186H7.03123ZM18.75 13.2811H31.25V14.8436H18.75V13.2811ZM17.1875 16.3741V24.0493C16.9369 23.917 16.7298 23.7152 16.5912 23.468C16.4526 23.2209 16.3884 22.9389 16.4062 22.6561C16.4062 22.4489 16.3239 22.2502 16.1774 22.1037C16.0309 21.9572 15.8322 21.8749 15.625 21.8749C15.4178 21.8749 15.2191 21.9572 15.0726 22.1037C14.926 22.2502 14.8437 22.4489 14.8437 22.6561C14.8573 22.8648 14.8262 23.074 14.7524 23.2697C14.6787 23.4655 14.5641 23.6432 14.4162 23.7911C14.2683 23.939 14.0906 24.0536 13.8948 24.1273C13.6991 24.2011 13.4899 24.2322 13.2812 24.2186C12.8668 24.2186 12.4694 24.054 12.1764 23.761C11.8834 23.468 11.7187 23.0705 11.7187 22.6561C11.7187 22.2417 11.8834 21.8443 12.1764 21.5513C12.4694 21.2583 12.8668 21.0936 13.2812 21.0936C13.3843 21.094 13.4865 21.074 13.5818 21.0347C13.6771 20.9954 13.7638 20.9377 13.8367 20.8648C15.0984 19.4816 16.2208 17.9774 17.1875 16.3741ZM32.8125 16.3878C33.7809 17.9865 34.9043 19.4861 36.1664 20.8648C36.3122 21.0085 36.5079 21.0904 36.7126 21.0936C37.0219 21.0924 37.3246 21.183 37.5824 21.354C37.8401 21.5249 38.0413 21.7685 38.1605 22.0539C38.2797 22.3393 38.3115 22.6537 38.2519 22.9572C38.1924 23.2607 38.044 23.5397 37.8257 23.7588C37.6075 23.9779 37.3291 24.1274 37.0258 24.1881C36.7226 24.2489 36.4081 24.2184 36.1222 24.1003C35.8363 23.9822 35.592 23.7819 35.42 23.5248C35.248 23.2678 35.1562 22.9654 35.1562 22.6561C35.1567 22.449 35.0749 22.2502 34.9288 22.1034C34.7828 21.9565 34.5844 21.8737 34.3773 21.8731C34.1702 21.8725 33.9713 21.9542 33.8244 22.1001C33.6774 22.2461 33.5945 22.4444 33.5937 22.6516C33.6119 22.9348 33.5478 23.2173 33.4092 23.465C33.2706 23.7127 33.0634 23.9151 32.8125 24.0477V16.3878ZM18.75 16.4061H31.25V22.2564C30.981 22.1115 30.6912 22.0091 30.3909 21.9527C30.2598 21.2498 29.8794 20.6178 29.3195 20.1729C28.7597 19.728 28.0581 19.5001 27.3437 19.5311C26.4994 19.48 25.6656 19.74 25 20.262C24.3344 19.74 23.5006 19.48 22.6562 19.5311C21.9418 19.5001 21.2402 19.728 20.6804 20.1729C20.1206 20.6178 19.7402 21.2498 19.6091 21.9527C19.3086 22.0101 19.0188 22.1135 18.75 22.2594V16.4061ZM22.5097 21.0921C22.5586 21.0902 22.6075 21.0907 22.6562 21.0936C24.0937 21.0936 24.2101 21.7632 24.2187 21.8749V21.8795C24.2173 22.0864 24.2981 22.2855 24.4432 22.4329C24.5884 22.5804 24.7862 22.6642 24.9931 22.6661C25.2001 22.6679 25.3993 22.5875 25.547 22.4426C25.6948 22.2977 25.779 22.1001 25.7812 21.8932C25.7914 21.7526 25.9172 21.0936 27.3437 21.0936C27.5528 21.0804 27.7622 21.1119 27.9581 21.186C28.154 21.2602 28.3318 21.3752 28.4796 21.5235C28.6275 21.6719 28.7421 21.85 28.8156 22.0461C28.8892 22.2422 28.9201 22.4517 28.9062 22.6607C28.909 22.8656 28.9915 23.0613 29.1363 23.2063C29.281 23.3513 29.4765 23.4342 29.6814 23.4374C29.8766 23.4243 30.0724 23.4503 30.2574 23.5137C30.4424 23.5772 30.613 23.6769 30.759 23.807C30.905 23.9372 31.0237 24.0951 31.108 24.2716C31.1923 24.4482 31.2406 24.6397 31.25 24.8351V24.9999V28.9C31.2361 29.3964 31.1185 29.8844 30.9049 30.3327C30.6912 30.781 30.3862 31.1797 30.0094 31.5032C29.9101 31.5739 29.8287 31.6669 29.7717 31.7747C29.7147 31.8826 29.6838 32.0023 29.6814 32.1242C29.6513 33.3459 29.1449 34.5074 28.2703 35.3608C27.3956 36.2142 26.222 36.6919 25 36.6919C23.778 36.6919 22.6044 36.2142 21.7297 35.3608C20.855 34.5074 20.3486 33.3459 20.3186 32.1242C20.3162 32.0023 20.2852 31.8826 20.2283 31.7747C20.1713 31.6669 20.0899 31.5739 19.9905 31.5032C19.6144 31.1805 19.3098 30.7828 19.0962 30.3356C18.8826 29.8884 18.7647 29.4015 18.75 28.9061V24.9999V24.8336C18.7594 24.6388 18.8075 24.4478 18.8914 24.2718C18.9754 24.0958 19.0935 23.9382 19.2389 23.8083C19.3843 23.6784 19.5541 23.5787 19.7384 23.515C19.9227 23.4513 20.1179 23.4249 20.3125 23.4374C20.5182 23.436 20.7152 23.354 20.8612 23.2092C21.0072 23.0643 21.0907 22.8679 21.0937 22.6622C21.0804 22.4655 21.1068 22.268 21.1713 22.0816C21.2358 21.8953 21.3371 21.7238 21.4692 21.5773C21.6013 21.4308 21.7615 21.3124 21.9402 21.2291C22.119 21.1457 22.3126 21.0991 22.5097 21.0921ZM10.1745 22.2365C10.1587 22.3758 10.1525 22.516 10.1562 22.6561V22.2426C10.1623 22.2406 10.1684 22.2386 10.1745 22.2365ZM8.59373 22.6027V24.2186H7.03123V22.6088C7.29057 22.6391 7.55139 22.6549 7.81248 22.6561C8.07369 22.6528 8.33451 22.635 8.59373 22.6027ZM10.1562 22.7767C10.1603 23.1803 10.2449 23.579 10.4049 23.9496C10.5649 24.3201 10.7972 24.6551 11.0881 24.9348C11.3791 25.2145 11.7229 25.4335 12.0995 25.5788C12.476 25.7241 12.8778 25.7929 13.2812 25.7811C13.7181 25.7791 14.1502 25.6904 14.5525 25.5201C14.9548 25.3499 15.3194 25.1015 15.625 24.7893C15.8383 25.0274 16.0887 25.2294 16.3666 25.3875C14.2329 25.9879 12.155 26.7716 10.1562 27.7297V24.9999V22.7767ZM7.03123 25.7811H8.59373V26.5624H7.03123V25.7811ZM32.8125 26.7867C33.2712 26.9068 33.7663 27.048 34.5001 27.2765C34.133 27.6082 33.5951 27.9272 32.8125 28.0593V26.7867ZM17.1875 26.8203V28.0593C16.4282 27.9303 15.899 27.6238 15.5319 27.3009C16.08 27.1281 16.632 26.9678 17.1875 26.8203ZM36.113 27.8182C36.9773 28.127 37.8919 28.4951 38.8046 28.9153C37.8922 31.9184 34.2895 41.4061 25 41.4061C15.7414 41.4061 12.1262 31.9491 11.203 28.9305C12.0899 28.5331 12.9918 28.1702 13.9068 27.8426C14.4649 28.5768 15.4868 29.46 17.2638 29.6492C17.4475 30.7464 17.9768 31.7562 18.7744 32.5316C18.9075 34.094 19.62 35.5502 20.7719 36.614C21.9238 37.6779 23.432 38.2725 25 38.2811C26.568 38.2725 28.0761 37.6779 29.2281 36.614C30.38 35.5502 31.0925 34.094 31.2256 32.5316C32.0226 31.756 32.5513 30.7462 32.7347 29.6492C34.5315 29.4584 35.5586 28.557 36.113 27.8182ZM7.03123 28.1249H8.59373V48.4374H7.03123V28.1249ZM40.2145 29.608C41.032 30.0518 41.8083 30.5412 42.4805 31.079C45.2898 33.3266 47.0146 43.66 47.5677 48.4374H25.7812V42.9396C35.3038 42.4399 39.1284 33.0321 40.2145 29.608ZM10.1562 30.7174C11.6634 34.7627 15.6562 42.4902 24.2187 42.9396V48.4374H10.1562V30.7174ZM14.8437 32.0311V33.5936H16.4062V32.0311H14.8437ZM33.5937 32.0311V33.5936H35.1562V32.0311H33.5937ZM5.46873 34.4405V48.4374H2.43681C2.72854 46 3.6886 38.9354 5.46873 34.4405ZM17.1875 35.9374V37.4999H18.75V35.9374H17.1875ZM31.25 35.9374V37.4999H32.8125V35.9374H31.25ZM24.2187 39.0624V40.6249H25.7812V39.0624H24.2187Z" fill="black"/>
</g>
<defs>
<clipPath id="clip0_122_193">
<rect width="50" height="50" fill="white"/>
</clipPath>
</defs>
</svg>
