<svg width="36" height="37" viewBox="0 0 36 37" fill="none" xmlns="http://www.w3.org/2000/svg">
<path d="M11.4707 0.986218C11.0811 0.997571 10.7113 1.16008 10.4395 1.43934L0.439453 11.4393C0.158255 11.7207 0.000288486 12.1021 0.000288486 12.4999C0.000288486 12.8976 0.158255 13.2791 0.439453 13.5604L10.4395 23.5604C10.5777 23.7044 10.7432 23.8193 10.9264 23.8985C11.1096 23.9777 11.3068 24.0195 11.5063 24.0215C11.7059 24.0236 11.9038 23.9857 12.0886 23.9103C12.2734 23.8349 12.4412 23.7233 12.5823 23.5822C12.7234 23.4411 12.835 23.2732 12.9104 23.0885C12.9859 22.9037 13.0237 22.7058 13.0216 22.5062C13.0196 22.3066 12.9778 22.1095 12.8986 21.9263C12.8194 21.7431 12.7045 21.5776 12.5605 21.4393L5.12109 13.9999H23C28.5403 13.9999 33 18.4596 33 23.9999C33 29.5402 28.5403 33.9999 23 33.9999H16.5C16.3012 33.9971 16.1039 34.0338 15.9194 34.1079C15.735 34.182 15.5671 34.2921 15.4255 34.4316C15.284 34.5712 15.1716 34.7375 15.0949 34.9209C15.0181 35.1043 14.9786 35.3011 14.9786 35.4999C14.9786 35.6987 15.0181 35.8955 15.0949 36.0789C15.1716 36.2623 15.284 36.4286 15.4255 36.5681C15.5671 36.7077 15.735 36.8177 15.9194 36.8919C16.1039 36.966 16.3012 37.0027 16.5 36.9999H23C30.1617 36.9999 36 31.1616 36 23.9999C36 16.8382 30.1617 10.9999 23 10.9999H5.12109L12.5605 3.56044C12.7769 3.34968 12.9247 3.07851 12.9844 2.7824C13.0442 2.4863 13.0131 2.17905 12.8953 1.90089C12.7776 1.62272 12.5786 1.38658 12.3244 1.22338C12.0702 1.06018 11.7726 0.977522 11.4707 0.986218ZM1.5 33.9999C1.10218 33.9999 0.720644 34.1579 0.43934 34.4392C0.158035 34.7205 0 35.1021 0 35.4999C0 35.8977 0.158035 36.2792 0.43934 36.5606C0.720644 36.8419 1.10218 36.9999 1.5 36.9999C1.89782 36.9999 2.27936 36.8419 2.56066 36.5606C2.84196 36.2792 3 35.8977 3 35.4999C3 35.1021 2.84196 34.7205 2.56066 34.4392C2.27936 34.1579 1.89782 33.9999 1.5 33.9999ZM6.5 33.9999C6.10218 33.9999 5.72064 34.1579 5.43934 34.4392C5.15804 34.7205 5 35.1021 5 35.4999C5 35.8977 5.15804 36.2792 5.43934 36.5606C5.72064 36.8419 6.10218 36.9999 6.5 36.9999C6.89782 36.9999 7.27936 36.8419 7.56066 36.5606C7.84196 36.2792 8 35.8977 8 35.4999C8 35.1021 7.84196 34.7205 7.56066 34.4392C7.27936 34.1579 6.89782 33.9999 6.5 33.9999ZM11.5 33.9999C11.1022 33.9999 10.7206 34.1579 10.4393 34.4392C10.158 34.7205 10 35.1021 10 35.4999C10 35.8977 10.158 36.2792 10.4393 36.5606C10.7206 36.8419 11.1022 36.9999 11.5 36.9999C11.8978 36.9999 12.2794 36.8419 12.5607 36.5606C12.842 36.2792 13 35.8977 13 35.4999C13 35.1021 12.842 34.7205 12.5607 34.4392C12.2794 34.1579 11.8978 33.9999 11.5 33.9999Z" fill="black"/>
</svg>
